<svg width="146.000000" height="50.000000" viewBox="0 0 146 50" fill="none" xmlns="http://www.w3.org/2000/svg" xmlns:xlink="http://www.w3.org/1999/xlink">
	<desc>
			Created with Pixso.
	</desc>
	<defs>
		<clipPath id="clip34_1672">
			<rect width="146.000000" height="50.000000" fill="white" fill-opacity="0"/>
		</clipPath>
	</defs>
	<rect width="146.000000" height="50.000000" fill="#FFFFFF" fill-opacity="0"/>
	<g clip-path="url(#clip34_1672)">
		<path d="M62.1299 25.6412C62.1299 32.5815 56.7676 37.6956 50.1875 37.6956C43.6064 37.6956 38.2441 32.5815 38.2441 25.6412C38.2441 18.6521 43.6064 13.5869 50.1875 13.5869C56.7676 13.5869 62.1299 18.6521 62.1299 25.6412ZM56.9023 25.6412C56.9023 21.3043 53.7939 18.3369 50.1875 18.3369C46.5801 18.3369 43.4727 21.3043 43.4727 25.6412C43.4727 29.9347 46.5801 32.9456 50.1875 32.9456C53.7939 32.9456 56.9023 29.9293 56.9023 25.6412Z" fill="#EA4335" fill-opacity="1.000000" fill-rule="nonzero"/>
		<path d="M87.8945 25.6412C87.8945 32.5815 82.5322 37.6956 75.9521 37.6956C69.3711 37.6956 64.0088 32.5815 64.0088 25.6412C64.0088 18.6575 69.3711 13.5869 75.9521 13.5869C82.5322 13.5869 87.8945 18.6521 87.8945 25.6412ZM82.667 25.6412C82.667 21.3043 79.5586 18.3369 75.9521 18.3369C72.3447 18.3369 69.2373 21.3043 69.2373 25.6412C69.2373 29.9347 72.3447 32.9456 75.9521 32.9456C79.5586 32.9456 82.667 29.9293 82.667 25.6412Z" fill="#FBBC05" fill-opacity="1.000000" fill-rule="nonzero"/>
		<path d="M112.586 14.3152L112.586 35.9565C112.586 44.8586 107.4 48.4945 101.271 48.4945C95.501 48.4945 92.0283 44.5869 90.7178 41.3912L95.2695 39.4727C96.0801 41.4347 98.0664 43.7499 101.266 43.7499C105.189 43.7499 107.621 41.2988 107.621 36.6847L107.621 34.951L107.438 34.951C106.269 36.413 104.014 37.6901 101.169 37.6901C95.2158 37.6901 89.7627 32.4401 89.7627 25.6847C89.7627 18.8804 95.2158 13.5869 101.169 13.5869C104.009 13.5869 106.263 14.864 107.438 16.2825L107.621 16.2825L107.621 14.3206L112.586 14.3206L112.586 14.3152ZM107.991 25.6847C107.991 21.4402 105.194 18.3369 101.636 18.3369C98.0293 18.3369 95.0068 21.4402 95.0068 25.6847C95.0068 29.8858 98.0293 32.9456 101.636 32.9456C105.194 32.9456 107.991 29.8858 107.991 25.6847Z" fill="#4285F4" fill-opacity="1.000000" fill-rule="nonzero"/>
		<path d="M120.772 1.63043L120.772 36.9565L115.673 36.9565L115.673 1.63043L120.772 1.63043Z" fill="#34A853" fill-opacity="1.000000" fill-rule="nonzero"/>
		<path d="M140.644 29.6086L144.701 32.3478C143.392 34.3098 140.235 37.6902 134.782 37.6902C128.019 37.6902 122.968 32.3967 122.968 25.6358C122.968 18.4673 128.062 13.5815 134.197 13.5815C140.375 13.5815 143.397 18.5598 144.385 21.25L144.927 22.6195L129.012 29.2934C130.23 31.7119 132.125 32.9456 134.782 32.9456C137.444 32.9456 139.291 31.6195 140.644 29.6086ZM128.153 25.2717L138.792 20.7989C138.206 19.2934 136.446 18.2445 134.374 18.2445C131.717 18.2445 128.019 20.6195 128.153 25.2717Z" fill="#EA4335" fill-opacity="1.000000" fill-rule="nonzero"/>
		<path d="M18.9424 22.5054L18.9424 17.3912L35.9629 17.3912C36.1299 18.2825 36.2158 19.3369 36.2158 20.4782C36.2158 24.3152 35.1797 29.0597 31.8408 32.4402C28.5938 35.8641 24.4443 37.6902 18.9482 37.6902C8.75977 37.6902 0.193359 29.288 0.193359 18.9727C0.193359 8.65753 8.75977 0.255371 18.9482 0.255371C24.584 0.255371 28.5986 2.49451 31.6152 5.41296L28.0518 9.02167C25.8887 6.96732 22.958 5.36951 18.9424 5.36951C11.5029 5.36951 5.68457 11.4402 5.68457 18.9727C5.68457 26.5054 11.5029 32.576 18.9424 32.576C23.7676 32.576 26.5166 30.6141 28.2773 28.8315C29.7051 27.3858 30.6436 25.3206 31.0146 22.4999L18.9424 22.5054Z" fill="#4285F4" fill-opacity="1.000000" fill-rule="nonzero"/>
	</g>
</svg>
