<svg width="178.000000" height="36.363800" viewBox="0 0 178 36.3638" fill="none" xmlns="http://www.w3.org/2000/svg" xmlns:xlink="http://www.w3.org/1999/xlink">
	<desc>
			Created with Pixso.
	</desc>
	<defs/>
	<path d="M3.13306 34.4586C1.40991 34.4586 0 33.0488 0 31.3256L0 20.372L7.88623 20.372L7.88623 20.3598L12.6262 20.3598C13.8481 20.3285 14.8821 19.2632 14.8821 18.01C14.8821 16.7255 13.8169 15.6602 12.5322 15.6602L6.26611 15.6602L6.26611 15.6622L0 15.6622L0 12.5271C0 10.804 1.40991 9.39407 3.13306 9.39407L12.5322 9.39407C14.9135 9.39407 16.95 10.24 18.6105 11.9319C20.3022 13.5924 21.1482 15.6289 21.1482 18.01C21.1482 20.3598 20.3336 22.3963 18.6731 24.0568C17.0126 25.7174 15.0074 26.5946 12.6576 26.626L6.26611 26.626L6.26611 31.3256C6.26611 33.0488 4.8562 34.4586 3.13306 34.4586Z" clip-rule="evenodd" fill="#02BC6B" fill-opacity="1.000000" fill-rule="evenodd"/>
	<path d="M25.09 5.75C28.55 9.11 30.3 13.3 30.3 18.06C30.3 22.74 28.63 26.93 25.22 30.3L20.38 25.75C22.5 23.65 23.54 21.12 23.54 18.06C23.54 14.98 22.47 12.46 20.3 10.35L25.09 5.75Z" fill="#02897A" fill-opacity="1.000000" fill-rule="evenodd"/>
	<path d="M32.5 0C37.49 4.97 39.99 11.14 39.99 18.23C39.99 25.2 37.59 31.37 32.68 36.36L28.01 31.8C31.67 28.08 33.46 23.57 33.46 18.23C33.46 12.83 31.61 8.33 27.87 4.6L32.5 0Z" fill="#035B81" fill-opacity="1.000000" fill-rule="evenodd"/>
	<path d="M0 26.6524L6.26611 26.6524L6.26611 31.326C6.26611 33.0492 4.8562 34.4591 3.13306 34.4591C1.40991 34.4591 0 33.0492 0 31.326L0 26.6524Z" clip-rule="evenodd" fill="#028E37" fill-opacity="1.000000" fill-rule="evenodd"/>
	<path d="M108.48 16.07Q107.51 18.02 107.51 20.59Q107.51 23.17 108.48 25.14Q109.29 26.77 110.57 27.78Q110.84 27.99 111.13 28.17Q111.78 28.58 112.48 28.83Q113.61 29.24 114.88 29.24Q116.66 29.24 117.99 28.52Q119.06 27.94 119.73 27.06Q119.9 26.84 120.05 26.59L120.05 29L125.17 29L125.17 6.8L120.05 6.8L120.05 14.57Q119.89 14.33 119.71 14.12Q118.99 13.26 117.9 12.71Q117.72 12.61 117.53 12.53Q116.32 12.02 114.88 12.02Q113.58 12.02 112.42 12.44Q111.75 12.68 111.13 13.06Q110.84 13.25 110.57 13.45Q109.29 14.45 108.48 16.07ZM73.47 17.16Q73.9 16.02 73.9 14.71Q73.9 12.89 73.16 11.45Q73.1 11.33 73.03 11.2Q72.85 10.88 72.62 10.58Q71.79 9.49 70.42 8.81Q68.69 7.94 66.17 7.94L57.86 7.94L57.86 29L62.98 29L62.98 21.44L66.17 21.44Q68.75 21.44 70.48 20.51Q72.03 19.68 72.86 18.39Q72.97 18.23 73.06 18.06Q73.3 17.62 73.47 17.16ZM176.6 29L176.6 24.64L174.77 24.64Q173.92 24.64 173.56 24.31Q173.21 23.99 173.21 23.24L173.21 16.51L176.57 16.51L176.57 12.25L173.21 12.25L173.21 8.17L168.08 8.17L168.08 12.25L166.04 12.25L166.04 16.51L168.08 16.51L168.08 23.17Q168.08 26.22 169.6 27.59Q169.62 27.61 169.64 27.63Q171.2 29 173.98 29L176.6 29ZM92.96 28.37Q94.79 29.24 97.03 29.24Q99.19 29.24 100.99 28.43Q101.24 28.32 101.49 28.19Q102.44 27.68 103.21 26.97Q104.04 26.19 104.64 25.17Q104.73 25.01 104.82 24.84Q105.79 22.99 105.79 20.62Q105.79 18.2 104.78 16.31Q104.72 16.2 104.65 16.08Q104.03 15.01 103.17 14.22Q102.44 13.54 101.53 13.06Q101.3 12.94 101.06 12.83Q99.26 12.02 97.1 12.02Q94.92 12.02 93.11 12.84Q92.88 12.94 92.65 13.06Q91.78 13.53 91.07 14.17Q90.17 14.98 89.53 16.08Q89.48 16.18 89.42 16.28Q88.4 18.17 88.4 20.62Q88.4 23.24 89.52 25.19Q90.12 26.23 90.96 27.01Q91.69 27.7 92.61 28.19Q92.78 28.28 92.96 28.37ZM149.16 16.07Q148.1 18.02 148.1 20.62Q148.1 23.24 149.16 25.19Q149.77 26.29 150.64 27.11Q151.31 27.73 152.13 28.19Q152.18 28.22 152.23 28.24Q154.1 29.24 156.5 29.24Q159.05 29.24 160.93 28.12Q161.35 27.87 161.74 27.56Q162.33 27.1 162.8 26.54Q164.06 25.07 164.53 22.94L159.08 22.94Q158.72 23.94 158.01 24.42Q157.36 24.86 156.4 24.86Q155.66 24.86 155.08 24.56Q154.55 24.28 154.15 23.77Q153.31 22.67 153.31 20.62Q153.31 18.59 154.15 17.5Q154.56 16.97 155.09 16.69Q155.67 16.4 156.4 16.4Q157.36 16.4 158.01 16.84Q158.72 17.32 159.08 18.32L164.53 18.32Q164.02 15.96 162.6 14.44Q162.21 14.02 161.76 13.67Q161.47 13.44 161.16 13.24Q159.22 12.02 156.5 12.02Q154.1 12.02 152.23 13.01Q152.18 13.04 152.13 13.06Q151.33 13.5 150.68 14.1Q149.78 14.93 149.16 16.07ZM67.96 16.67Q67.25 17.36 65.77 17.36L62.98 17.36L62.98 12.08L65.77 12.08Q67.25 12.08 67.96 12.76Q68.08 12.87 68.17 12.99Q68.69 13.65 68.69 14.71Q68.69 15.77 68.17 16.43Q68.08 16.56 67.96 16.67ZM83.29 13.32Q82.37 14.02 81.7 15.04L81.7 12.25L76.58 12.25L76.58 29L81.7 29L81.7 21.22Q81.7 19.16 82.66 18.33Q83.63 17.5 85.55 17.5L86.95 17.5L86.95 12.08Q85.85 12.08 84.88 12.43Q84.4 12.61 83.95 12.87Q83.61 13.08 83.29 13.32ZM145.43 29L145.43 12.25L140.29 12.25L140.29 21.35Q140.29 22.94 139.5 23.86Q139.46 23.91 139.42 23.96Q139.21 24.19 138.95 24.36Q138.19 24.89 137.06 24.89Q135.99 24.89 135.24 24.4Q134.95 24.22 134.71 23.96Q134.68 23.92 134.64 23.88Q133.85 22.96 133.85 21.35L133.85 12.25L128.74 12.25L128.74 22.04Q128.74 24.23 129.56 25.85Q130.12 26.98 131.01 27.74Q131.39 28.06 131.83 28.32Q131.95 28.39 132.08 28.46Q133.46 29.18 135.22 29.18Q136.62 29.18 137.81 28.68Q137.99 28.6 138.17 28.5Q139.43 27.87 140.19 26.86Q140.24 26.79 140.29 26.72L140.29 29L145.43 29ZM98.34 24.55Q97.74 24.8 97.03 24.8Q96.29 24.8 95.67 24.52Q95.07 24.25 94.59 23.72Q93.61 22.64 93.61 20.62Q93.61 18.59 94.6 17.53Q95.06 17.04 95.62 16.77Q96.28 16.46 97.1 16.46Q97.81 16.46 98.42 16.71Q99.05 16.98 99.57 17.54Q99.58 17.55 99.59 17.56Q100.58 18.64 100.58 20.62Q100.58 22.56 99.61 23.64Q99.58 23.68 99.54 23.72Q99 24.28 98.34 24.55ZM119.25 17.91Q120.05 18.96 120.05 20.62Q120.05 22.28 119.25 23.33Q119.12 23.5 118.98 23.66Q118.44 24.21 117.79 24.49Q117.15 24.76 116.38 24.76Q115.65 24.76 115.02 24.5Q114.34 24.22 113.78 23.64Q113.64 23.49 113.52 23.32Q112.72 22.26 112.72 20.59Q112.72 18.91 113.54 17.87Q113.65 17.72 113.78 17.58Q114.32 17.03 114.98 16.76Q115.62 16.49 116.38 16.49Q117.14 16.49 117.78 16.75Q118.44 17.03 118.98 17.6Q119.12 17.75 119.25 17.91Z" fill="#173A56" fill-opacity="1.000000" fill-rule="evenodd"/>
</svg>
