<svg width="213.000000" height="44.000000" viewBox="0 0 213 44" fill="none" xmlns="http://www.w3.org/2000/svg" xmlns:xlink="http://www.w3.org/1999/xlink">
	<desc>
			Created with Pixso.
	</desc>
	<defs>
		<clipPath id="clip34_1679">
			<rect width="213.000000" height="44.000000" fill="white" fill-opacity="0"/>
		</clipPath>
	</defs>
	<rect width="213.000000" height="44.000000" fill="#FFFFFF" fill-opacity="0"/>
	<g clip-path="url(#clip34_1679)">
		<path d="M75.1846 25.3426L73.915 28.8217L73.8086 28.8217C73.5977 28.0372 73.21 26.8434 72.5752 25.4108L65.7686 8.86816L59.1035 8.86816L59.1035 35.2341L63.5117 35.2341L63.5117 18.9643C63.5117 17.941 63.5117 16.7813 63.4766 15.3488C63.4414 14.6325 63.3701 14.0868 63.335 13.6775L63.4414 13.6775C63.6523 14.7007 63.8994 15.4511 64.0762 15.9286L72.2568 35.1659L75.3604 35.1659L83.4717 15.7581C83.6475 15.3147 83.8242 14.4279 84.001 13.6775L84.1064 13.6775C84.001 15.6217 83.9297 17.3612 83.8945 18.4186L83.8945 35.1317L88.585 35.1317L88.585 8.79996L82.167 8.79996L75.1846 25.3426ZM93.0283 16.2356L97.6123 16.2356L97.6123 35.1317L93.0283 35.1317L93.0283 16.2356ZM95.3555 8.25421C94.5801 8.25421 93.9453 8.5271 93.416 9.00461C92.8877 9.48212 92.6055 10.0961 92.6055 10.8465C92.6055 11.5627 92.8877 12.1767 93.416 12.6542C93.9453 13.1317 94.5801 13.3705 95.3555 13.3705C96.1318 13.3705 96.8018 13.0976 97.2949 12.6542C97.8242 12.1767 98.1064 11.5627 98.1064 10.8465C98.1064 10.1302 97.8242 9.51624 97.2949 9.00461C96.8369 8.5271 96.167 8.25421 95.3555 8.25421ZM113.87 16.0651C113.023 15.8945 112.142 15.7922 111.296 15.7922C109.215 15.7922 107.311 16.2356 105.724 17.1224C104.137 18.0093 102.867 19.2372 102.057 20.7721C101.21 22.341 100.787 24.1488 100.787 26.2294C100.787 28.0372 101.21 29.6403 102.021 31.1069C102.832 32.5395 103.961 33.6992 105.477 34.4837C106.923 35.2682 108.615 35.6775 110.52 35.6775C112.706 35.6775 114.575 35.2341 116.057 34.4155L116.092 34.3813L116.092 30.2883L115.915 30.4248C115.245 30.9023 114.47 31.3116 113.693 31.5504C112.883 31.8232 112.142 31.9597 111.507 31.9597C109.674 31.9597 108.228 31.448 107.205 30.3224C106.146 29.231 105.618 27.7302 105.618 25.8542C105.618 23.91 106.146 22.3752 107.24 21.2496C108.333 20.124 109.779 19.5442 111.542 19.5442C113.023 19.5442 114.54 20.0217 115.915 20.9767L116.092 21.1131L116.092 16.7813L116.057 16.7473C115.457 16.5085 114.787 16.2356 113.87 16.0651ZM128.999 15.9286C127.87 15.9286 126.812 16.2697 125.896 16.986C125.119 17.5999 124.591 18.4868 124.132 19.5442L124.097 19.5442L124.097 16.2356L119.513 16.2356L119.513 35.1317L124.097 35.1317L124.097 25.479C124.097 23.8418 124.449 22.4775 125.226 21.4883C126.001 20.4651 126.988 19.9535 128.188 19.9535C128.61 19.9535 129.034 20.0558 129.562 20.124C130.057 20.2604 130.409 20.3969 130.656 20.5674L130.832 20.7038L130.832 16.2697L130.727 16.2356C130.409 16.031 129.774 15.9286 128.999 15.9286ZM141.482 15.8263C138.273 15.8263 135.699 16.7473 133.9 18.555C132.066 20.3628 131.185 22.8527 131.185 25.9907C131.185 28.924 132.102 31.3116 133.865 33.0511C135.628 34.7566 138.026 35.6434 141.023 35.6434C144.162 35.6434 146.666 34.7224 148.465 32.8806C150.299 31.0387 151.18 28.5829 151.18 25.5472C151.18 22.5457 150.334 20.1581 148.605 18.4186C146.948 16.679 144.515 15.8263 141.482 15.8263ZM145.149 30.3565C144.304 31.4139 142.964 31.9255 141.306 31.9255C139.648 31.9255 138.309 31.4139 137.356 30.2883C136.404 29.231 135.945 27.6961 135.945 25.7519C135.945 23.7395 136.439 22.2046 137.356 21.1131C138.309 20.0217 139.613 19.4759 141.271 19.4759C142.893 19.4759 144.162 19.9875 145.079 21.0449C145.996 22.1023 146.49 23.6372 146.49 25.6496C146.419 27.6961 146.031 29.2992 145.149 30.3565ZM161.407 24.0806C159.961 23.5007 159.044 23.0573 158.621 22.6821C158.269 22.341 158.092 21.8635 158.092 21.2496C158.092 20.7379 158.304 20.2263 158.833 19.8852C159.361 19.5442 159.961 19.3736 160.843 19.3736C161.618 19.3736 162.43 19.51 163.205 19.7147C163.981 19.9193 164.687 20.2263 165.251 20.6356L165.427 20.7721L165.427 16.6108L165.321 16.5767C164.792 16.372 164.087 16.1674 163.241 15.9969C162.395 15.8604 161.618 15.7922 160.983 15.7922C158.798 15.7922 156.999 16.3038 155.588 17.4294C154.178 18.4868 153.508 19.9193 153.508 21.5907C153.508 22.4775 153.648 23.262 153.966 23.91C154.283 24.5581 154.742 25.1721 155.377 25.6837C156.012 26.1612 156.929 26.7069 158.198 27.2186C159.256 27.662 160.067 28.0031 160.561 28.2759C161.055 28.5488 161.372 28.8558 161.618 29.0945C161.795 29.3674 161.9 29.7085 161.9 30.1519C161.9 31.4139 160.913 32.0279 158.903 32.0279C158.127 32.0279 157.316 31.8914 156.364 31.5844C155.412 31.2775 154.53 30.8341 153.79 30.3224L153.613 30.186L153.613 34.5178L153.72 34.5519C154.39 34.8589 155.2 35.0635 156.188 35.3023C157.175 35.4728 158.057 35.6093 158.833 35.6093C161.195 35.6093 163.135 35.0976 164.511 33.972C165.921 32.8806 166.661 31.4821 166.661 29.6744C166.661 28.4124 166.309 27.2868 165.533 26.4341C164.511 25.6155 163.241 24.7628 161.407 24.0806ZM178.758 15.8263C175.548 15.8263 172.974 16.7473 171.176 18.555C169.377 20.3628 168.46 22.8527 168.46 25.9907C168.46 28.924 169.377 31.3116 171.14 33.0511C172.903 34.7566 175.302 35.6434 178.299 35.6434C181.438 35.6434 183.941 34.7224 185.74 32.8806C187.573 31.0387 188.455 28.5829 188.455 25.5472C188.455 22.5457 187.608 20.1581 185.881 18.4186C184.224 16.679 181.79 15.8263 178.758 15.8263ZM182.39 30.3565C181.543 31.4139 180.203 31.9255 178.546 31.9255C176.854 31.9255 175.548 31.4139 174.596 30.2883C173.644 29.231 173.186 27.6961 173.186 25.7519C173.186 23.7395 173.679 22.2046 174.596 21.1131C175.548 20.0217 176.854 19.4759 178.511 19.4759C180.098 19.4759 181.402 19.9875 182.319 21.0449C183.236 22.1023 183.729 23.6372 183.729 25.6496C183.729 27.6961 183.271 29.2992 182.39 30.3565ZM212.964 19.8852L212.964 16.2356L208.345 16.2356L208.345 10.6418L208.203 10.6759L203.831 11.938L203.725 11.972L203.725 16.2356L196.812 16.2356L196.812 13.848C196.812 12.7566 197.095 11.9038 197.589 11.3581C198.082 10.8124 198.823 10.5395 199.74 10.5395C200.375 10.5395 201.045 10.6759 201.785 10.9829L201.962 11.0852L201.962 7.23096L201.855 7.19687C201.221 6.99222 200.375 6.85577 199.281 6.85577C197.906 6.85577 196.707 7.16275 195.614 7.67438C194.521 8.25421 193.71 9.03873 193.11 10.0961C192.511 11.1194 192.193 12.279 192.193 13.6093L192.193 16.2356L188.984 16.2356L188.984 19.8511L192.193 19.8511L192.193 35.1317L196.812 35.1317L196.812 19.8852L203.725 19.8852L203.725 29.6062C203.725 33.5969 205.664 35.6093 209.544 35.6093C210.179 35.6093 210.849 35.5069 211.483 35.4046C212.153 35.2682 212.646 35.0976 212.929 34.9612L212.964 34.9271L212.964 31.2775L212.788 31.4139C212.506 31.5844 212.259 31.7209 211.836 31.8232C211.483 31.9255 211.166 31.9597 210.919 31.9597C210.002 31.9597 209.367 31.755 208.909 31.2434C208.485 30.7658 208.274 29.9814 208.274 28.8217L208.274 19.8852L212.964 19.8852Z" fill="#737373" fill-opacity="1.000000" fill-rule="nonzero"/>
		<path d="M0 0L21.6172 0L21.6172 20.9085L0 20.9085L0 0Z" fill="#F25022" fill-opacity="1.000000" fill-rule="nonzero"/>
		<path d="M23.874 0L45.4912 0L45.4912 20.9085L23.874 20.9085L23.874 0Z" fill="#7FBA00" fill-opacity="1.000000" fill-rule="nonzero"/>
		<path d="M0 23.0915L21.6172 23.0915L21.6172 44L0 44L0 23.0915Z" fill="#00A4EF" fill-opacity="1.000000" fill-rule="nonzero"/>
		<path d="M23.874 23.0915L45.4912 23.0915L45.4912 44L23.874 44L23.874 23.0915Z" fill="#FFB900" fill-opacity="1.000000" fill-rule="nonzero"/>
	</g>
</svg>
